<?xml version="1.0" encoding="utf-8"?>
<!-- Generator: Adobe Illustrator 22.0.0, SVG Export Plug-In . SVG Version: 6.00 Build 0)  -->
<svg version="1.1" id="Layer_1" xmlns="http://www.w3.org/2000/svg" xmlns:xlink="http://www.w3.org/1999/xlink" x="0px" y="0px"
	 viewBox="0 0 512 512" style="enable-background:new 0 0 512 512;" xml:space="preserve">
<style type="text/css">
	.st0{fill:#FF4B55;}
	.st1{fill:#464655;}
</style>
<circle class="st0" cx="256" cy="256" r="256"/>
<path class="st1" d="M403.4,317.8c-7.4-4.6-11.8,2.7-11.8,2.7l-21.5,2.5l10.7-9.1c7.8,0.6,8.8-1.7,10.9-4.8
	c2.1-3.2,10.9-1.7,10.9-1.7c-1.3-9.7-13.5-4.2-13.5-4.2c-9.9-1.1-11.6,6.9-11.6,6.9L362.3,322l-33.8-10c3.5-3.9,6.3-7.7,6.7-10
	c0.7-3.9-25-10.4-32.8-18.5c-7.9-8.1-10.7-21.1-7-24.4c3.6-3.4,6.7,6.2,10.7,14c3.9,7.9,11.2,14,16,10.1c4.8-3.9-5.1-9.8-9.5-18.2
	s3.4-11.5,7-10.7c3.6,0.8,5.9,18.2,14.6,27.2c8.7,9,16.6,7.3,17.4,1.7c0.8-5.6-14.4-12.5-17.5-17.3c-3.1-4.8-3.9-14.1,1.2-14.4
	c5.1-0.3,23.6,27.3,39.3,37.9c17.1,11.5,30.9-2,28.6-7.6c-2.2-5.6-12.6-3.4-24.7-6.5c-12.1-3.1-24.4-19.4-28.1-28.4
	c-3.6-9-0.6-9,1.5-8.1c2.1,0.8,10.1,12.6,25.5,21.7c15.4,9.1,26.1,0.4,27.4-1.7c1.3-2.1,6.1-11.6-9.7-9.3
	c-18,2.5-28.2-8.1-35.6-13.8c-7.4-5.7-10.3-13.5-6.9-16.6s14.5,11.1,31.3,15.6c15.5,4.1,21.8-2.5,21.3-8.6c-0.4-6.1-4-3.6-21.5-5.3
	s-29.7-18.1-30.3-19.2c-0.6-1.1-0.4-6.9,8.4-1.3c8.8,5.7,24.6,9.1,33.9,8.6s11.2-12.8,6.7-14.9c-4.4-2.1-5.5,1.1-15.6,3.2
	c-10.1,2.1-29.1-8.2-33.7-13.1c-4.6-4.8,0.4-8,2.7-7.6s17.5,9.3,30.9,8.8s19.2-12.8,18.7-16.6c-0.4-3.8-4.2-6.9-9.9-3.2
	s-13.3,8.2-25.9,6.1c-12.6-2.1-18.5-10.5-16.8-13.7s13.9,2.3,33.3,0.2s20.2-19.2,18.3-22.5s-6.5-2.3-13.1,3.8
	c-6.5,6.1-19.2,7.4-29.1,7.4s-10.1-4.8-8.6-8.2c1.5-3.4,12-2.5,26.7-7.2s23.2-16.4,25.5-23.8s-3.4-13.1-5.7-13.1
	c-2.3,0-0.8-3.4-10.9,11.2S352.6,126,352.6,126c-1.9-3.6-4.8-4.8-4.8-4.8c-17.9,3.6-39.5,19-39.5,19s3.8,12.2-1,21.7
	c-6.1,12.2-27.1,4.6-21.4-14.7c4.8-16.1,23.1-25.8,38.7-27.6c15.5-1.7,16.3-7.6,16.3-7.6s-16.3,5.3-16.6-2c3.4,0.7,8.3,1,16.8,0.2
	c12.5-1.1,19.5-10,14-11.9c-5.5-1.9-3.2,3.8-12.7,8.2c-6.8,3.2-13.9,1.7-17.5,0.7c3.3-7.2,17.2-3.5,17.2-3.5c0.2-12.5-16.5-8-16.5-8
	c-7.3-15.7-50,2.5-50,2.5l10.1,8.1c-24.7,13.8-29.8,39.9-29.8,39.9s-5.1-26.1-29.8-39.9l10.1-8.1c0,0-42.7-18.2-50-2.5
	c0,0-16.6-4.5-16.5,8c0,0,13.9-3.7,17.2,3.5c-3.6,1.1-10.7,2.5-17.5-0.7c-9.5-4.4-7.1-10.1-12.7-8.2c-5.5,1.9,1.4,10.8,13.9,11.9
	c8.4,0.7,13.4,0.4,16.8-0.2c-0.3,7.3-16.6,2-16.6,2s0.8,5.9,16.3,7.6c15.5,1.7,33.9,11.5,38.7,27.6c5.7,19.3-15.3,27-21.4,14.7
	c-4.8-9.5-1-21.7-1-21.7s-21.6-15.5-39.5-19c0,0-2.9,1.3-4.8,4.8c0,0-26.5-5.7-36.6-20.2s-8.6-11.2-10.9-11.2s-8,5.7-5.7,13.1
	s10.7,19.2,25.5,23.8c14.7,4.6,25.3,3.8,26.7,7.2c1.5,3.4,1.3,8.2-8.6,8.2s-22.5-1.3-29.1-7.4c-6.5-6.1-11.2-7.2-13.1-3.8
	c-1.9,3.4-1.1,20.4,18.3,22.5c19.4,2.1,31.6-3.4,33.3-0.2c1.7,3.2-4.2,11.6-16.8,13.7c-12.6,2.1-20.2-2.3-25.9-6.1
	c-5.7-3.8-9.5-0.6-9.9,3.2c-0.4,3.8,5.3,16.2,18.7,16.6s28.6-8.4,30.9-8.8s7.4,2.7,2.7,7.6c-4.6,4.8-23.6,15.2-33.7,13.1
	c-10.1-2.1-11.2-5.3-15.6-3.2c-4.4,2.1-2.5,14.5,6.7,14.9s25.1-2.9,33.9-8.6c8.8-5.7,9.1,0.2,8.4,1.3s-12.8,17.5-30.3,19.2
	s-21.1-0.8-21.5,5.3s5.9,12.8,21.3,8.6c16.8-4.5,27.9-18.7,31.3-15.6s0.4,10.9-6.9,16.6S135,252,117.1,249.5
	c-15.8-2.2-10.9,7.2-9.7,9.3s12,10.7,27.4,1.7c15.4-9.1,23.4-20.8,25.5-21.7c2.1-0.8,5.1-0.8,1.5,8.1s-16,25.3-28.1,28.4
	c-12.1,3.1-22.5,0.8-24.7,6.5c-2.2,5.6,11.5,19.1,28.6,7.6c15.7-10.6,34.2-38.2,39.3-37.9c5.1,0.3,4.3,9.6,1.2,14.4
	c-3.1,4.8-18.3,11.7-17.4,17.3c0.8,5.6,8.7,7.3,17.4-1.7s10.9-26.4,14.6-27.2c3.6-0.8,11.5,2.2,7,10.7s-14.3,14.3-9.5,18.2
	c4.8,3.9,12.1-2.2,16-10.1c3.9-7.9,7-17.4,10.7-14c3.6,3.4,0.8,16.3-7,24.4c-7.9,8.1-33.5,14.7-32.8,18.5c0.4,2.3,3.2,6.1,6.7,10
	l-33.8,10l-15.4-11.8c0,0-1.7-8-11.6-6.9c0,0-12.2-5.5-13.5,4.2c0,0,8.8-1.5,10.9,1.7s3.2,5.5,10.9,4.8l10.7,9.1l-21.5-2.5
	c0,0-4.4-7.4-11.8-2.7c0,0-9.3-2.9-11.6,5.9c0,0,8-1.5,10.1-0.4c0,0,3.2,7.2,13.3,2.9l21.3,1.1l-12,5.9c0,0-15.2-4.8-14.5,7.8
	c0,0-4.4,5.1-0.4,10.1c0,0,0.8-5.5,4.8-7.8c0,0,7.8,3.2,12.8-6.1l15.4-9.3l15.2,7.4c0,0-0.4,8.2,10.7,4.8c0,0,3.8,2.5,4.8,5.9
	c0,0,4.8-5.3-2.9-11.4c0,0-1.9-7.2-11.2-4.4l-8.6-4.4l31.9-9.5c5.5,5.3,11.5,9.6,13.6,8.9c4.1-1.4,7.3-5.7,10.1-11.7
	c2.9-6,15.7-26.9,22-26.8c6.3,0.2,9.2,5.2,7.6,14.3c-1.6,9-13.9,26.3-21.9,29.9s-9.3,5.3-16.6,4.6c-7.4-0.6-9.9,2.5-8.2,6.7
	s10,6.9,18.1,3.8c8.8-3.4,12.2-8,15.6-5.3s-3.6,12.6-13.1,15.6c-9.5,2.9-16.6,1.1-15.2,6.9c1.5,5.9,11.6,6.3,18.1,2.5
	c6.5-3.8,13.9-14.3,15.8-10.9c1.9,3.4,0.6,12-5.7,16.6c-6.3,4.6-13.5,1.9-14.9,6.1c-2.1,6.1,5.3,10.1,10.9,7.8s12.2-9.5,15.2-15.8
	s8.4-0.8,6.7,5.1c-1.7,5.9-0.3,10.7-12.4,20l22.5,34.5l22.5-34.5c-12.1-9.3-10.7-14.1-12.4-20c-1.7-5.9,3.8-11.4,6.7-5.1
	s9.5,13.5,15.2,15.8c5.7,2.3,13.1-1.7,10.9-7.8c-1.4-4.2-8.6-1.5-14.9-6.1c-6.3-4.6-7.6-13.3-5.7-16.6c1.9-3.4,9.3,7.2,15.8,10.9
	s16.6,3.4,18.1-2.5c1.5-5.9-5.7-4-15.2-6.9s-16.4-12.8-13.1-15.6s6.7,1.9,15.6,5.3c8.1,3.1,16.4,0.4,18.1-3.8
	c1.7-4.2-0.8-7.4-8.2-6.7c-7.4,0.6-8.6-1.1-16.6-4.6s-20.4-20.9-21.9-29.9c-1.6-9,1.3-14.1,7.6-14.3c6.3-0.2,19.2,20.8,22,26.8
	c2.9,6,6,10.3,10.1,11.7c2.1,0.7,8.1-3.6,13.6-8.9l31.9,9.5l-8.6,4.4c-9.3-2.7-11.2,4.4-11.2,4.4c-7.8,6.1-2.9,11.4-2.9,11.4
	c1.1-3.4,4.8-5.9,4.8-5.9c11.2,3.4,10.7-4.8,10.7-4.8l15.2-7.4l15.4,9.3c5.1,9.3,12.8,6.1,12.8,6.1c4,2.3,4.8,7.8,4.8,7.8
	c4-5.1-0.4-10.1-0.4-10.1c0.6-12.6-14.5-7.8-14.5-7.8l-12-5.9l21.3-1.1c10.1,4.2,13.3-2.9,13.3-2.9c2.1-1.1,10.1,0.4,10.1,0.4
	C412.6,314.8,403.4,317.8,403.4,317.8z"/>
</svg>
