<?xml version="1.0" encoding="utf-8"?>
<!-- Generator: Adobe Illustrator 22.0.0, SVG Export Plug-In . SVG Version: 6.00 Build 0)  -->
<svg version="1.1" id="Capa_1" xmlns="http://www.w3.org/2000/svg" xmlns:xlink="http://www.w3.org/1999/xlink" x="0px" y="0px"
	 viewBox="0 0 400 400" style="enable-background:new 0 0 400 400;" xml:space="preserve">
<style type="text/css">
	.st0{fill:#FFFFFF;}
	.st1{fill:#074CC4;}
	.st2{fill:#2859BE;}
</style>
<g>
	<circle class="st0" cx="200.5" cy="200.5" r="185.5"/>
	<path class="st1" d="M200.5,25c46.9,0,90.9,18.3,124.1,51.4c33.1,33.1,51.4,77.2,51.4,124.1s-18.3,90.9-51.4,124.1
		c-33.1,33.1-77.2,51.4-124.1,51.4s-90.9-18.3-124.1-51.4C43.3,291.4,25,247.4,25,200.5s18.3-90.9,51.4-124.1
		C109.6,43.3,153.6,25,200.5,25 M200.5,5C92.5,5,5,92.5,5,200.5S92.5,396,200.5,396S396,308.5,396,200.5S308.5,5,200.5,5L200.5,5z"
		/>
</g>
<path class="st2" d="M200,191.4c9.7,0,17.6-7.9,17.6-17.6c0-9.7-7.9-17.6-17.6-17.6c-9.7,0-17.6,7.9-17.6,17.6
	C182.4,183.5,190.3,191.4,200,191.4z"/>
<path class="st2" d="M268.5,149c9.7,0,17.6-7.9,17.6-17.6c0-9.7-7.9-17.6-17.6-17.6c-9.7,0-17.6,7.9-17.6,17.6
	C251,141.2,258.8,149,268.5,149z"/>
<path class="st2" d="M268.5,251c-9.7,0-17.6,7.9-17.6,17.6c0,9.7,7.9,17.6,17.6,17.6c9.7,0,17.6-7.9,17.6-17.6
	C286.1,258.8,278.2,251,268.5,251z"/>
<path class="st2" d="M131.5,113.9c-9.7,0-17.6,7.9-17.6,17.6v42.4c0,9.7,7.9,17.6,17.6,17.6c9.7,0,17.6-7.9,17.6-17.6v-42.4
	C149,121.8,141.2,113.9,131.5,113.9z"/>
<path class="st2" d="M131.5,208.6c-9.7,0-17.6,7.9-17.6,17.6v42.3c0,9.7,7.9,17.6,17.6,17.6c9.7,0,17.6-7.9,17.6-17.6v-42.4
	C149,216.5,141.2,208.6,131.5,208.6z"/>
<path class="st2" d="M200.3,208.6c-9.7,0-17.6,7.9-17.6,17.6v42.3c0,9.7,7.9,17.6,17.6,17.6c9.7,0,17.6-7.9,17.6-17.6v-42.4
	C217.8,216.5,210,208.6,200.3,208.6z"/>
<path class="st2" d="M268.5,161.2c-9.7,0-17.6,7.9-17.6,17.6v42.4c0,9.7,7.9,17.6,17.6,17.6c9.7,0,17.6-7.9,17.6-17.6v-42.4
	C286.1,169.1,278.2,161.2,268.5,161.2z"/>
</svg>
