<?xml version="1.0" encoding="utf-8"?>
<!-- Generator: Adobe Illustrator 22.0.0, SVG Export Plug-In . SVG Version: 6.00 Build 0)  -->
<svg version="1.1" id="Capa_1" xmlns="http://www.w3.org/2000/svg" xmlns:xlink="http://www.w3.org/1999/xlink" x="0px" y="0px"
	 viewBox="0 0 400 400" style="enable-background:new 0 0 400 400;" xml:space="preserve">
<style type="text/css">
	.st0{fill:#074CC4;stroke:url(#SVGID_1_);stroke-miterlimit:10;}
	.st1{fill:#FFFFFF;}
</style>
<linearGradient id="SVGID_1_" gradientUnits="userSpaceOnUse" x1="4.5" y1="200.5" x2="396.5" y2="200.5">
	<stop  offset="0" style="stop-color:#FFFFFF"/>
	<stop  offset="1" style="stop-color:#000000"/>
</linearGradient>
<circle class="st0" cx="200.5" cy="200.5" r="195.5"/>
<g>
	<g>
		<path class="st1" d="M191.6,263.8c-8.5,8.5-22.2,8.5-30.7,0l-47.6-47.6c-8.5-8.5-8.5-22.2,0-30.7c8.5-8.5,22.2-8.5,30.7,0
			l28.3,28.3c2.1,2.1,5.6,2.1,7.8,0l76.7-76.7c8.5-8.5,22.2-8.5,30.7,0c4.1,4.1,6.4,9.6,6.4,15.3c0,5.8-2.3,11.3-6.4,15.3
			L191.6,263.8z"/>
	</g>
</g>
</svg>
