<svg xmlns="http://www.w3.org/2000/svg" xmlns:xlink="http://www.w3.org/1999/xlink" viewBox="0 0 1610.1 496.31"><defs><style>.cls-1,.cls-2,.cls-4{fill:#292b2d;}.cls-1{clip-rule:evenodd;}.cls-3{isolation:isolate;}.cls-4{fill-rule:evenodd;}.cls-5{clip-path:url(#clip-path);}.cls-6{clip-path:url(#clip-path-2);}.cls-7{clip-path:url(#clip-path-3);}.cls-8{clip-path:url(#clip-path-5);}.cls-9{clip-path:url(#clip-path-6);}.cls-10{clip-path:url(#clip-path-7);}.cls-11{clip-path:url(#clip-path-9);}.cls-12{clip-path:url(#clip-path-11);}.cls-13{clip-path:url(#clip-path-12);}.cls-14{clip-path:url(#clip-path-13);}.cls-15{clip-path:url(#clip-path-14);}.cls-16{fill:none;stroke:#fff;stroke-miterlimit:10;}.cls-17{fill:#2859be;}.cls-18{fill:#ffde17;}.cls-19{fill:#fbb040;}.cls-20{fill:red;}.cls-21{fill:#ea0000;}.cls-22,.cls-34{mix-blend-mode:multiply;}.cls-23{fill:#d1d3d4;}.cls-24{fill:url(#linear-gradient);}.cls-25{fill:url(#linear-gradient-2);}.cls-26{fill:url(#linear-gradient-3);}.cls-27{fill:url(#linear-gradient-4);}.cls-28{fill:url(#linear-gradient-5);}.cls-29{fill:url(#linear-gradient-6);}.cls-30{fill:url(#linear-gradient-7);}.cls-31{fill:url(#linear-gradient-8);}.cls-32{fill:#eff5fb;}.cls-33{fill:url(#linear-gradient-9);}.cls-34{fill:#e6e7e8;}.cls-35{fill:url(#linear-gradient-10);}.cls-36{fill:url(#linear-gradient-11);}</style><clipPath id="clip-path"><path class="cls-1" d="M1316.5,184.81a70.84,70.84,0,1,0,70.84,70.85,70.93,70.93,0,0,0-70.84-70.85m0,120.43a49.59,49.59,0,1,1,49.59-49.58,49.64,49.64,0,0,1-49.59,49.58"/></clipPath><clipPath id="clip-path-2"><rect class="cls-2" x="207.34" y="111.73" width="1383.38" height="287.46"/></clipPath><clipPath id="clip-path-3"><path class="cls-1" d="M934.09,184.81a70.84,70.84,0,1,0,0,141.68,70,70,0,0,0,23.13-4c.58-.19,1.67-.71,1.67-2.75V300.34c0-1.78-1.24-1.11-1.87-.77a49.56,49.56,0,1,1,26.66-43.91V322.5a1.77,1.77,0,0,0,1.78,1.77h17.69a1.75,1.75,0,0,0,1.79-1.77V255.66a70.93,70.93,0,0,0-70.85-70.85"/></clipPath><clipPath id="clip-path-5"><path class="cls-1" d="M1473.39,185.91a60.29,60.29,0,0,0-60.22,60.22v77.48a1.76,1.76,0,0,0,1.76,1.77h17.72a1.74,1.74,0,0,0,1.75-1.77V246.13a39,39,0,0,1,78,0v77.48a1.76,1.76,0,0,0,1.75,1.77h17.72a1.75,1.75,0,0,0,1.75-1.77V246.13h0a60.31,60.31,0,0,0-60.24-60.22"/></clipPath><clipPath id="clip-path-6"><rect class="cls-2" x="207.34" y="112.84" width="1383.38" height="287.46"/></clipPath><clipPath id="clip-path-7"><path class="cls-1" d="M1097.92,185.91a60.29,60.29,0,0,0-60.21,60.22v77.48a1.77,1.77,0,0,0,1.77,1.77h17.72a1.76,1.76,0,0,0,1.76-1.77V246.13a39,39,0,0,1,39-39,1.75,1.75,0,0,0,1.78-1.76v-17.7a1.77,1.77,0,0,0-1.78-1.78"/></clipPath><clipPath id="clip-path-9"><path class="cls-1" d="M780.74,185.91a56.52,56.52,0,0,0-46.06,23.74A56.62,56.62,0,0,0,632,242.58v81a1.76,1.76,0,0,0,1.76,1.77h17.71a1.76,1.76,0,0,0,1.77-1.77v-81a35.44,35.44,0,0,1,70.87,0v81a1.76,1.76,0,0,0,1.76,1.77h17.71a1.75,1.75,0,0,0,1.76-1.77v-81a35.43,35.43,0,1,1,70.85,0v81a1.78,1.78,0,0,0,1.78,1.77h17.7a1.76,1.76,0,0,0,1.78-1.77v-81a56.74,56.74,0,0,0-56.68-56.67"/></clipPath><clipPath id="clip-path-11"><path class="cls-1" d="M1585.86,187h-17.69a1.79,1.79,0,0,0-1.78,1.78V322.51a1.77,1.77,0,0,0,1.78,1.76h17.69a1.76,1.76,0,0,0,1.79-1.76V188.8a1.78,1.78,0,0,0-1.79-1.78"/></clipPath><clipPath id="clip-path-12"><rect class="cls-2" x="207.34" y="111.74" width="1383.38" height="287.46"/></clipPath><clipPath id="clip-path-13"><path class="cls-1" d="M1219.7,291.88a1.83,1.83,0,0,0-2.51.09,49.59,49.59,0,1,1,0-72.64,1.84,1.84,0,0,0,2.51.1L1232.17,207a1.91,1.91,0,0,0-.1-2.79,70.84,70.84,0,1,0,0,103,1.9,1.9,0,0,0,.1-2.78l-12.47-12.48"/></clipPath><clipPath id="clip-path-14"><rect class="cls-2" x="207.34" y="111.73" width="1383.38" height="287.46"/></clipPath><linearGradient id="linear-gradient" x1="1628.37" y1="-132.89" x2="1708.64" y2="-132.89" gradientTransform="matrix(0.63, 0.78, -0.78, 0.63, -653.17, -866.4)" gradientUnits="userSpaceOnUse"><stop offset="0.5" stop-color="#e6e7e8"/><stop offset="0.5" stop-color="#d1d3d4"/></linearGradient><linearGradient id="linear-gradient-2" x1="1646.59" y1="-201.64" x2="1690.41" y2="-201.64" gradientTransform="matrix(0.63, 0.78, -0.78, 0.63, -653.17, -866.4)" gradientUnits="userSpaceOnUse"><stop offset="0.5" stop-color="red"/><stop offset="0.5" stop-color="#ea0000"/></linearGradient><linearGradient id="linear-gradient-3" x1="1618.29" y1="15.47" x2="1679.66" y2="15.47" gradientTransform="matrix(0.63, 0.78, -0.78, 0.63, -634.64, -856.24)" gradientUnits="userSpaceOnUse"><stop offset="0.5" stop-color="#fa0"/><stop offset="0.5" stop-color="#f7941e"/></linearGradient><linearGradient id="linear-gradient-4" x1="1625.36" y1="6.14" x2="1672.6" y2="6.14" gradientTransform="matrix(0.63, 0.78, -0.78, 0.63, -634.64, -856.24)" gradientUnits="userSpaceOnUse"><stop offset="0.5" stop-color="#ffc100"/><stop offset="0.5" stop-color="#f7b100"/></linearGradient><linearGradient id="linear-gradient-5" x1="1633.68" y1="-2.58" x2="1664.28" y2="-2.58" gradientTransform="matrix(0.63, 0.78, -0.78, 0.63, -634.64, -856.24)" gradientUnits="userSpaceOnUse"><stop offset="0.5" stop-color="#ffec00"/><stop offset="0.5" stop-color="#f7d500"/></linearGradient><linearGradient id="linear-gradient-6" x1="1646.6" y1="-45.36" x2="1690.41" y2="-45.36" gradientTransform="matrix(0, 1, -1, 0, 384.12, -1264.5)" gradientUnits="userSpaceOnUse"><stop offset="0.5" stop-color="#a7a9ac"/><stop offset="0.5" stop-color="#808285"/></linearGradient><linearGradient id="linear-gradient-7" x1="1643.32" y1="-50.78" x2="1693.69" y2="-50.78" gradientTransform="matrix(0.63, 0.78, -0.78, 0.63, -653.17, -866.4)" gradientUnits="userSpaceOnUse"><stop offset="0.5" stop-color="#bcbec0"/><stop offset="0.5" stop-color="#a7a9ac"/></linearGradient><linearGradient id="linear-gradient-8" x1="494.22" y1="478.86" x2="520.95" y2="505.59" gradientTransform="matrix(0.86, 0.51, -0.51, 0.86, 321.63, -341.19)" xlink:href="#linear-gradient-2"/><linearGradient id="linear-gradient-9" x1="1666.05" y1="-60.43" x2="1670.96" y2="-60.43" gradientTransform="translate(380.77 -1273.96) rotate(90)" xlink:href="#linear-gradient-2"/><linearGradient id="linear-gradient-10" x1="1648.49" y1="-214.46" x2="1649.46" y2="-214.46" gradientTransform="matrix(0.63, 0.78, -0.78, 0.63, -634.64, -856.24)" xlink:href="#linear-gradient"/><linearGradient id="linear-gradient-11" x1="1645.8" y1="-222.34" x2="1652.15" y2="-222.34" gradientTransform="matrix(0.63, 0.78, -0.78, 0.63, -634.64, -856.24)" xlink:href="#linear-gradient-2"/></defs><title>mainnet-logo-4</title><g class="cls-3"><g id="website"><g id="Layer_6_copy" data-name="Layer 6 copy"><g id="Layer_17" data-name="Layer 17"><path class="cls-4" d="M1316.5,184.81a70.84,70.84,0,1,0,70.84,70.85,70.93,70.93,0,0,0-70.84-70.85m0,120.43a49.59,49.59,0,1,1,49.59-49.58,49.64,49.64,0,0,1-49.59,49.58"/><g class="cls-5"><rect class="cls-2" x="207.34" y="111.73" width="1383.38" height="287.46"/><g class="cls-6"><rect class="cls-2" x="1223.21" y="162.35" width="186.59" height="186.59"/></g></g><path class="cls-4" d="M934.09,184.81a70.84,70.84,0,1,0,0,141.68,70,70,0,0,0,23.13-4c.58-.19,1.67-.71,1.67-2.75V300.34c0-1.78-1.24-1.11-1.87-.77a49.56,49.56,0,1,1,26.66-43.91V322.5a1.77,1.77,0,0,0,1.78,1.77h17.69a1.75,1.75,0,0,0,1.79-1.77V255.66a70.93,70.93,0,0,0-70.85-70.85"/><g class="cls-7"><rect class="cls-2" x="207.34" y="111.73" width="1383.38" height="287.46"/><g class="cls-6"><rect class="cls-2" x="840.79" y="162.35" width="186.6" height="186.59"/></g></g><path class="cls-4" d="M1473.39,185.91a60.29,60.29,0,0,0-60.22,60.22v77.48a1.76,1.76,0,0,0,1.76,1.77h17.72a1.74,1.74,0,0,0,1.75-1.77V246.13a39,39,0,0,1,78,0v77.48a1.76,1.76,0,0,0,1.75,1.77h17.72a1.75,1.75,0,0,0,1.75-1.77V246.13h0a60.31,60.31,0,0,0-60.24-60.22"/><g class="cls-8"><rect class="cls-2" x="207.34" y="112.84" width="1383.38" height="287.46"/><g class="cls-9"><rect class="cls-2" x="1390.72" y="163.46" width="165.37" height="184.38"/></g></g><path class="cls-4" d="M1097.92,185.91a60.29,60.29,0,0,0-60.21,60.22v77.48a1.77,1.77,0,0,0,1.77,1.77h17.72a1.76,1.76,0,0,0,1.76-1.77V246.13a39,39,0,0,1,39-39,1.75,1.75,0,0,0,1.78-1.76v-17.7a1.77,1.77,0,0,0-1.78-1.78"/><g class="cls-10"><rect class="cls-2" x="207.34" y="112.84" width="1383.38" height="287.46"/><g class="cls-9"><rect class="cls-2" x="1015.26" y="163.46" width="106.91" height="184.38"/></g></g><path class="cls-4" d="M780.74,185.91a56.52,56.52,0,0,0-46.06,23.74A56.62,56.62,0,0,0,632,242.58v81a1.76,1.76,0,0,0,1.76,1.77h17.71a1.76,1.76,0,0,0,1.77-1.77v-81a35.44,35.44,0,0,1,70.87,0v81a1.76,1.76,0,0,0,1.76,1.77h17.71a1.75,1.75,0,0,0,1.76-1.77v-81a35.43,35.43,0,1,1,70.85,0v81a1.78,1.78,0,0,0,1.78,1.77h17.7a1.76,1.76,0,0,0,1.78-1.77v-81a56.74,56.74,0,0,0-56.68-56.67"/><g class="cls-11"><rect class="cls-2" x="207.34" y="112.84" width="1383.38" height="287.46"/><g class="cls-9"><rect class="cls-2" x="609.52" y="163.46" width="250.36" height="184.38"/></g></g><path class="cls-4" d="M1585.86,187h-17.69a1.79,1.79,0,0,0-1.78,1.78V322.51a1.77,1.77,0,0,0,1.78,1.76h17.69a1.76,1.76,0,0,0,1.79-1.76V188.8a1.78,1.78,0,0,0-1.79-1.78"/><g class="cls-12"><rect class="cls-2" x="207.34" y="111.74" width="1383.38" height="287.46"/><g class="cls-13"><rect class="cls-2" x="1543.93" y="164.56" width="66.17" height="182.17"/></g></g><path class="cls-4" d="M1219.7,291.88a1.83,1.83,0,0,0-2.51.09,49.59,49.59,0,1,1,0-72.64,1.84,1.84,0,0,0,2.51.1L1232.17,207a1.91,1.91,0,0,0-.1-2.79,70.84,70.84,0,1,0,0,103,1.9,1.9,0,0,0,.1-2.78l-12.47-12.48"/><g class="cls-14"><rect class="cls-2" x="207.34" y="111.73" width="1383.38" height="287.46"/><g class="cls-15"><rect class="cls-2" x="1090.16" y="162.35" width="165.04" height="186.6"/></g></g></g></g><g id="Layer_4_copy" data-name="Layer 4 copy"><g id="Layer_1_copy_2" data-name="Layer 1 copy 2"><ellipse class="cls-16" cx="261.64" cy="239.86" rx="227.72" ry="234.2"/><path class="cls-17" d="M261.64,232.27A27.68,27.68,0,1,0,234,204.6,27.71,27.71,0,0,0,261.64,232.27Z"/><path class="cls-17" d="M369.54,165.6a27.68,27.68,0,1,0-27.68-27.67A27.7,27.7,0,0,0,369.54,165.6Z"/><path class="cls-17" d="M369.54,326a27.68,27.68,0,1,0,27.67,27.68A27.71,27.71,0,0,0,369.54,326Z"/><path class="cls-17" d="M153.75,110.25a27.71,27.71,0,0,0-27.68,27.68V204.6a27.68,27.68,0,0,0,55.36,0V137.92A27.71,27.71,0,0,0,153.75,110.25Z"/><path class="cls-17" d="M153.75,259.36A27.71,27.71,0,0,0,126.07,287v66.67a27.68,27.68,0,0,0,55.36,0V287A27.71,27.71,0,0,0,153.75,259.36Z"/><path class="cls-17" d="M262.05,259.36A27.7,27.7,0,0,0,234.38,287v66.67a27.68,27.68,0,0,0,55.35,0V287A27.71,27.71,0,0,0,262.05,259.36Z"/><path class="cls-17" d="M369.54,184.8a27.71,27.71,0,0,0-27.68,27.68v66.67a27.68,27.68,0,1,0,55.35,0V212.48A27.71,27.71,0,0,0,369.54,184.8Z"/><path class="cls-18" d="M439.39,92.48a235,235,0,0,0-59.5-53c-55-34-122.31-44.44-184.62-28.75-3,.76-6,1.59-9,2.47C127.1,30.6,75.58,71.58,44.93,125.6,16.67,175.42,6.63,234.76,17.38,288.41c3.18,15.85,6.38,27.87,10.43,39a252.86,252.86,0,0,0,42.05,74.27c38,46.33,92.51,78.13,149.59,87.26a265.58,265.58,0,0,0,80.83.7c12.84-1.6,25.51-5.15,37.36-8.64l5.91-1.75c14-4.17,28.7-9.24,41.5-18.09a52.39,52.39,0,0,0,5.17-4.06,31.24,31.24,0,0,0,.59-3.22l-4.13,1.65C367.54,463,348.9,469,348.9,469s8.42-14.57,18.76-30.35c1.61-2.44,3.25-4.92,4.93-7.37-.58-.05-1.17-.09-1.76-.11-3.21,3.8-7.91,6.5-12.16,8.76-11.21,6-23.39,9.91-33.82,13-3.69,1.09-7.42,2.14-11,3.16l-3.6,1c-52.92,14.95-113.6,6.48-166.48-23.24C98.17,408.24,61,363.41,44.2,313.94c-13.59-40.09-16.56-81.82-8.56-120.67C49.92,123.81,96.33,64,159.8,33.39a236.72,236.72,0,0,1,36.07-13.94,226.92,226.92,0,0,1,36.56-7.58,220.66,220.66,0,0,1,54.06-.3,267.73,267.73,0,0,1,50.08,11.32c29.73,9.69,58.53,27.32,85.59,52.39,12.27,11.36,23.5,25,34,41.35A219.46,219.46,0,0,0,439.39,92.48Z"/><path class="cls-19" d="M442.13,90.3a237.31,237.31,0,0,0-60.41-53.84A243.77,243.77,0,0,0,194.42,7.3c-3.06.77-6.11,1.6-9.12,2.49A245.72,245.72,0,0,0,41.89,123.87C14,173,2.8,233.46,14,289.1a270.39,270.39,0,0,0,10.56,39.48,256.58,256.58,0,0,0,42.65,75.29c37.55,45.79,93,79.11,151.74,88.5a270.35,270.35,0,0,0,81.81.71c12.81-1.59,25.5-5.09,37.91-8.75l5.93-1.77c14.84-4.4,29.68-9.68,42.49-18.56.51-.34,1-.69,1.48-1.06a48.94,48.94,0,0,0,1.7-5.87,31.24,31.24,0,0,0,.59-3.22l-4.13,1.65c-1.17,1-2.37,1.89-3.61,2.75-12.41,8.58-26.8,13.53-40.52,17.6l-.66.21-5.25,1.55c-11.71,3.46-24.21,6.95-36.8,8.53l-.12,0a261.85,261.85,0,0,1-79.72-.71c-27.68-4.42-55.81-14.7-81.35-29.71A245.7,245.7,0,0,1,31.09,326.19c-4-10.94-7.14-22.79-10.28-38.47a223.76,223.76,0,0,1-.62-82.49A244.17,244.17,0,0,1,48,127.33,237.87,237.87,0,0,1,107,58.4a235.29,235.29,0,0,1,80.31-41.9c2.91-.86,5.9-1.66,8.85-2.41a234.12,234.12,0,0,1,49.5-7q-6.72.45-13.62,1.3a228.35,228.35,0,0,0-37.13,7.69,241.68,241.68,0,0,0-36.61,14.14C93.84,61.36,46.71,122.05,32.21,192.57c-8.12,39.45-5.11,81.81,8.67,122.5,17,50.26,54.85,95.81,101.15,121.84,53.69,30.18,115.34,38.76,169.15,23.55l3.57-1c3.63-1,7.37-2.08,11.1-3.17,10.6-3.13,23-7.14,34.47-13.25a73.39,73.39,0,0,0,7.34-4.37c1.61-2.44,3.25-4.92,4.93-7.37-.58-.05-1.17-.09-1.76-.11a41.69,41.69,0,0,0-5.13.16,49.63,49.63,0,0,1-8.67,5.51c-10.39,5.52-21.76,9.35-33.16,12.71-4.89,1.44-9.77,2.8-14.59,4.16-55.1,15.56-114.62,4.73-163.82-22.91-45-25.3-81.37-69.07-98-118C34.57,274.64,30.85,233.92,39.07,194c14-68,59.65-127.21,122.25-157.45a234.27,234.27,0,0,1,35.54-13.72,221.53,221.53,0,0,1,36-7.47A218.11,218.11,0,0,1,286.05,15a266.66,266.66,0,0,1,49.44,11.19c31.67,10.32,60,29.14,84.29,51.62C439.1,95.73,454,117.8,466.2,141c6.84,12.53,11.68,26.49,15.59,40.19a232.29,232.29,0,0,1-1.58,133.63q-2,6.47-4.43,12.83c-1.93,5-4,10-6.19,15a289.29,289.29,0,0,0,11.46-28.24,230.16,230.16,0,0,0,11.78-53.53c2.68-28.71.56-58.88-7.8-86.56C475.69,143.78,462.07,115.32,442.13,90.3Z"/><path class="cls-20" d="M419.77,380.4l-6.56.66s-17.43-8.76-32.42,3.33l-7.92-9.92s29-45,66.46-38.74a51.18,51.18,0,0,1,7.89,2.48l1,.39C436,351.25,427,365.66,420.46,379Z"/><path class="cls-21" d="M446.39,465.65l-8-9.84c15-12.09,10.12-31,10.12-31v0l2-6.23,1.54-.37c14.38-3.52,30.37-9.25,45.33-18.56,0,0,.06.4.17,1h0a50,50,0,0,1,.75,8.23C496.48,446.82,446.39,465.65,446.39,465.65Z"/><g class="cls-22"><path class="cls-23" d="M419.77,380.4l-6.56.66c7.92-14.74,18.92-30.23,34-42.85l1,.39C436,351.25,427,365.66,420.46,379Z"/><path class="cls-23" d="M497.59,400.67c-15.49,12-33,19.5-49.08,24.12l2-6.23c14.77-3.49,31.37-9.3,46.86-18.93h0S497.48,400,497.59,400.67Z"/></g><path class="cls-24" d="M509.81,390.84a122.22,122.22,0,0,1-12.4,8.79c-15,9.3-30.94,15-45.33,18.55l-1.42.35c-2,.47-3.92.89-5.82,1.28L417.33,385.7c.77-1.74,1.58-3.52,2.44-5.31l.69-1.42c6.49-13.32,15.48-27.72,27.75-40.37a122.3,122.3,0,0,1,11.21-10.25c20.61-16.62,44.95-24.88,65-29a182.12,182.12,0,0,1,39.74-3.89,182.52,182.52,0,0,1-12.23,38C543.65,352.19,530.42,374.22,509.81,390.84Z"/><path class="cls-25" d="M551.89,333.5l-27.51-34.12a182.12,182.12,0,0,1,39.74-3.89A182.52,182.52,0,0,1,551.89,333.5Z"/><path class="cls-26" d="M441.6,422.42h0l-27.47-34.07v0h0c-39.29,8.29-59.53,44.9-59.53,44.9s9.91-2.66,18-1.94C360.13,449.57,348.91,469,348.91,469s21.4-6.88,41.89-15.17c-1,8.12-5.71,17.26-5.71,17.26S425.18,459.08,441.6,422.42Z"/><path class="cls-27" d="M434.65,420.51h0l-20.14-25v0h0C385.68,401.6,368.85,426,368.85,426s9.26.52,15.22,1.05c-9.13,13.4-17.36,27.65-17.36,27.65s15.69-5,30.71-11.12c-.75,6-2.2,15.13-2.2,15.13S422.62,447.38,434.65,420.51Z"/><path class="cls-28" d="M427.66,418.86h0l-13-16.15h0c-18.62,3.93-29.54,19.64-29.54,19.64a42.31,42.31,0,0,1,8.88-.51,122.5,122.5,0,0,0-10.22,19.11A122.62,122.62,0,0,0,404.58,435a18.27,18.27,0,0,1-2.38,8.6S419.87,436.24,427.66,418.86Z"/><rect class="cls-29" x="427.38" y="382.16" width="4.17" height="43.81" transform="matrix(0.78, -0.63, 0.63, 0.78, -158.48, 359.08)"/><path class="cls-30" d="M452.08,418.18c-2.46.61-4.88,1.15-7.24,1.63L417.33,385.7c1-2.2,2-4.46,3.13-6.73Z"/><circle class="cls-31" cx="507.78" cy="340.92" r="18.9" transform="translate(-95.65 241.23) rotate(-24.5)"/><path class="cls-32" d="M517.72,353.25a15.85,15.85,0,0,1-20.37-.4,16.39,16.39,0,0,1-1.91-2A15.84,15.84,0,0,1,513.05,326a15.67,15.67,0,0,1,5.62,3.44,15.29,15.29,0,0,1,1.44,1.56A15.84,15.84,0,0,1,517.72,353.25Z"/><rect class="cls-33" x="400.59" y="392.15" width="81.21" height="4.9" transform="translate(-149.95 364.35) rotate(-38.88)"/><polygon class="cls-34" points="474.35 371.02 452.08 418.18 444.84 419.81 441.59 422.43 429.38 407.28 474.35 371.02"/><path class="cls-35" d="M571.38,290.26l-7.39,6-.61-.75,7.39-6a2.8,2.8,0,0,0,.27.4A2.83,2.83,0,0,0,571.38,290.26Z"/><path class="cls-36" d="M575.51,290.39a3.16,3.16,0,0,1-4.13-.13,2.83,2.83,0,0,1-.34-.35,2.8,2.8,0,0,1-.27-.4,3.17,3.17,0,1,1,4.74.88Z"/></g></g></g></g></svg>