<?xml version="1.0" encoding="utf-8"?>
<!-- Generator: Adobe Illustrator 22.0.0, SVG Export Plug-In . SVG Version: 6.00 Build 0)  -->
<svg version="1.1" id="Слой_1" xmlns="http://www.w3.org/2000/svg" xmlns:xlink="http://www.w3.org/1999/xlink" x="0px" y="0px"
	 viewBox="0 0 480 480" style="enable-background:new 0 0 480 480;" xml:space="preserve">
<style type="text/css">
	.st0{fill:#2859BE;}
	.st1{fill:#D6D8DB;}
</style>
<path class="st0" d="M52,30h16v63.2H52V30z"/>
<path class="st0" d="M52,101.4h16V114H52V101.4z"/>
<path class="st0" d="M52,121.4h16V134H52V121.4z"/>
<path class="st1" d="M439.6,155.5c-1.1-3.3-4.1-5.5-7.6-5.5H48c-3.4,0-6.5,2.2-7.6,5.5s0,6.9,2.8,8.9L208,288v46
	c0,2.7,1.3,5.2,3.6,6.7l48,32c2.5,1.6,5.6,1.8,8.2,0.4s4.2-4.1,4.2-7.1v-78l164.8-123.6C439.6,162.3,440.7,158.7,439.6,155.5z
	 M259.2,277.6c-2,1.5-3.2,3.9-3.2,6.4v67l-32-21.3V284c0-2.5-1.2-4.9-3.2-6.4L72,166h336L259.2,277.6z"/>
<path class="st0" d="M92,76.5h16v37.7H92V76.5z"/>
<path class="st0" d="M92,57.4h16V70H92V57.4z"/>
<path class="st0" d="M92,121.4h16V134H92V121.4z"/>
<path class="st0" d="M132,71h16v63.2h-16V71z"/>
<path class="st0" d="M132,31.4h16V44h-16V31.4z"/>
<path class="st0" d="M132,51.4h16V64h-16V51.4z"/>
<path class="st0" d="M172,56.5h16v37.7h-16V56.5z"/>
<path class="st0" d="M172,101.4h16V114h-16V101.4z"/>
<path class="st0" d="M172,121.4h16V134h-16V121.4z"/>
<path class="st0" d="M212,76.5h16v37.7h-16V76.5z"/>
<path class="st0" d="M212,56.4h16V69h-16V56.4z"/>
<path class="st0" d="M212,121.4h16V134h-16V121.4z"/>
<path class="st0" d="M212,36.4h16V49h-16V36.4z"/>
<path class="st0" d="M252,30h16v63.2h-16V30z"/>
<path class="st0" d="M252,101.4h16V114h-16V101.4z"/>
<path class="st0" d="M252,121.4h16V134h-16V121.4z"/>
<path class="st0" d="M292,76.5h16v37.7h-16V76.5z"/>
<path class="st0" d="M292,57.4h16V70h-16V57.4z"/>
<path class="st0" d="M292,121.4h16V134h-16V121.4z"/>
<path class="st0" d="M332,71h16v63.2h-16V71z"/>
<path class="st0" d="M332,31.4h16V44h-16V31.4z"/>
<path class="st0" d="M332,51.4h16V64h-16V51.4z"/>
<path class="st0" d="M372,56.5h16v37.7h-16V56.5z"/>
<path class="st0" d="M372,101.4h16V114h-16V101.4z"/>
<path class="st0" d="M372,121.4h16V134h-16V121.4z"/>
<path class="st0" d="M412,76.5h16v37.7h-16V76.5z"/>
<path class="st0" d="M412,56.4h16V69h-16V56.4z"/>
<path class="st0" d="M412,121.4h16V134h-16V121.4z"/>
<path class="st0" d="M412,36.4h16V49h-16V36.4z"/>
<path class="st0" d="M52,390h16v63.2H52V390z"/>
<path class="st0" d="M92,417.4h16V430H92V417.4z"/>
<path class="st0" d="M132,417.4h16V430h-16V417.4z"/>
<path class="st0" d="M172,390h16v63.2h-16V390z"/>
<path class="st0" d="M212,390h16v63.2h-16V390z"/>
<path class="st0" d="M252,417.4h16V430h-16V417.4z"/>
<path class="st0" d="M292,390h16v63.2h-16V390z"/>
<path class="st0" d="M332,417.4h16V430h-16V417.4z"/>
<path class="st0" d="M372,390h16v63.2h-16V390z"/>
<path class="st0" d="M412,417.4h16V430h-16V417.4z"/>
</svg>
